# xmcd
#
# Track frame offsets:
#	150
#	16552
#	29860
#	44137
#	57018
#	69804
#	90542
#	103748
#	117080
#	133328
#	146706
#	161759
#	174189
#	190135
#	204676
#	221288
#	236938
#	252574
#	267367
#
# Disc length: 3776 seconds
#
# Revision: 1
# Processed by: cddbd v1.5.2PL0 Copyright (c) Steve Scherf et al.
# Submitted via: audiograbber 1.82.02
#
DISCID=1b0ebe13
DTITLE=Various Artist - Country Radio - May 2016
DYEAR=2016
DGENRE=Country
TTITLE0=Josh Abbott Band (Ft. Carly Pearce) - Wasn't That Drunk
TTITLE1=McKenna Faith - Obvious
TTITLE2=Trailer Choir - Ice Cold Summer
TTITLE3=Blackjack Billy - Booze Cruise, The
TTITLE4=Jana Kramer - Said No One Ever
TTITLE5=Luke Bryan - Huntin', Fishin' and Lovin' Every Day
TTITLE6=Courtney Dickinson - Young Forever
TTITLE7=Randy Houser - Song Number 7
TTITLE8=Blake Shelton - Came Here To Forget
TTITLE9=Kane Brown - Used To Love You Sober
TTITLE10=Blair Lane - My Whole World
TTITLE11=Granger Smith - If The Boot Fits
TTITLE12=Tucker Beathard - Rock On
TTITLE13=Jake Owen - American Country Love Song
TTITLE14=Sam Hunt - Make You Miss Me
TTITLE15=Martina McBride - Reckless
TTITLE16=Brian Collins - Healing Highway
TTITLE17=Kelsea Ballerini - Peter Pan
TTITLE18=Neon Summer - I Ain't Leavin' Till I'm Famous
EXTD=
EXTT0=
EXTT1=
EXTT2=
EXTT3=
EXTT4=
EXTT5=
EXTT6=
EXTT7=
EXTT8=
EXTT9=
EXTT10=
EXTT11=
EXTT12=
EXTT13=
EXTT14=
EXTT15=
EXTT16=
EXTT17=
EXTT18=
PLAYORDER=
